<svg width="16" height="17" viewBox="0 0 16 17" fill="none" xmlns="http://www.w3.org/2000/svg">
<rect width="16" height="16" transform="translate(0 0.5)" fill="white" style="mix-blend-mode:multiply"/>
<path d="M13.5 4H11.5V6H13.5V4Z" fill="#131315"/>
<path d="M13.5 7H11.5V9H13.5V7Z" fill="#131315"/>
<path d="M10.5 4H8.5V6H10.5V4Z" fill="#131315"/>
<path d="M10.5 7H8.5V9H10.5V7Z" fill="#131315"/>
<path d="M7.25 13.5C7.66421 13.5 8 13.1642 8 12.75C8 12.3358 7.66421 12 7.25 12C6.83579 12 6.5 12.3358 6.5 12.75C6.5 13.1642 6.83579 13.5 7.25 13.5Z" fill="#131315"/>
<path d="M10.5 15.5H4C3.73488 15.4997 3.4807 15.3942 3.29323 15.2068C3.10576 15.0193 3.0003 14.7651 3 14.5V2.5C3.0003 2.23488 3.10576 1.9807 3.29323 1.79323C3.4807 1.60576 3.73488 1.5003 4 1.5H10.5V2.5H4V14.5H10.5V10.5H11.5V14.5C11.4997 14.7651 11.3942 15.0193 11.2068 15.2068C11.0193 15.3942 10.7651 15.4997 10.5 15.5Z" fill="#131315"/>
</svg>
